<svg width="189" height="30" viewBox="0 0 189 30" xmlns="http://www.w3.org/2000/svg">
<path d="M5.8186 11.4413H3.9907V19.1487H0V0.909173H3.9907V8.9394L5.5814 8.53587L11.9442 0.909173H16.9535L10.1302 8.58967L9.01395 9.58504L10.2 10.6342L17.5674 19.1487H12.2372L5.8186 11.4413Z"/>
<path d="M20.1126 10.0558C20.1126 8.54932 20.3405 7.20871 20.7963 6.03399C21.2521 4.85031 21.894 3.85493 22.7219 3.04788C23.5591 2.24082 24.5591 1.62656 25.7219 1.20509C26.8847 0.774664 28.1777 0.559448 29.6009 0.559448C31.1079 0.559448 32.4474 0.788115 33.6195 1.24545C34.8009 1.70278 35.8009 2.34843 36.6195 3.18239C37.4381 4.01635 38.0614 5.0162 38.4893 6.18195C38.9172 7.33873 39.1312 8.62106 39.1312 10.0289C39.1312 11.4458 38.9172 12.7371 38.4893 13.9028C38.0614 15.0686 37.4381 16.0684 36.6195 16.9024C35.8009 17.7363 34.8009 18.382 33.6195 18.8393C32.4474 19.2966 31.1079 19.5253 29.6009 19.5253C28.1777 19.5253 26.8847 19.3146 25.7219 18.8931C24.5591 18.4627 23.5591 17.8439 22.7219 17.0369C21.894 16.2298 21.2521 15.2389 20.7963 14.0642C20.3405 12.8895 20.1126 11.5534 20.1126 10.0558ZM24.3405 10.0289C24.3405 11.0781 24.466 11.9883 24.7172 12.7595C24.9684 13.5307 25.3219 14.1673 25.7777 14.6695C26.2428 15.1717 26.7963 15.5438 27.4381 15.7859C28.0893 16.0281 28.8102 16.1491 29.6009 16.1491C30.5033 16.1491 31.2847 15.9922 31.9451 15.6783C32.6149 15.3645 33.1637 14.934 33.5916 14.387C34.0288 13.84 34.3498 13.1944 34.5544 12.4501C34.7684 11.6968 34.8754 10.8898 34.8754 10.0289C34.8754 9.16806 34.7684 8.36549 34.5544 7.6212C34.3498 6.87692 34.0288 6.23575 33.5916 5.69772C33.1637 5.15071 32.6149 4.72028 31.9451 4.40642C31.2847 4.09257 30.5033 3.93564 29.6009 3.93564C28.8102 3.93564 28.0893 4.0567 27.4381 4.29882C26.7963 4.54093 26.2428 4.91308 25.7777 5.41525C25.3219 5.91742 24.9684 6.55409 24.7172 7.32528C24.466 8.0875 24.3405 8.98872 24.3405 10.0289Z"/>
<path d="M57.4716 11.6161H49.0995V19.1487H45.1088V0.909173H49.0995V8.23995H57.4716V0.909173H61.4763V19.1487H57.4716V11.6161Z"/>
<path d="M84.9377 17.7632C84.3702 18.0771 83.7842 18.3461 83.1795 18.5703C82.5842 18.7855 81.9935 18.9648 81.4074 19.1083C80.8307 19.2518 80.2726 19.3549 79.733 19.4177C79.2028 19.4805 78.7144 19.5119 78.2679 19.5119C77.654 19.5119 77.0121 19.485 76.3423 19.4311C75.6726 19.3863 75.0074 19.2922 74.347 19.1487C73.6865 18.9962 73.0446 18.7855 72.4214 18.5165C71.8074 18.2475 71.24 17.8933 70.7191 17.4539C70.2447 17.0593 69.8121 16.6109 69.4214 16.1088C69.0307 15.6066 68.6958 15.0506 68.4167 14.4408C68.1377 13.8221 67.9191 13.1451 67.7609 12.4097C67.6121 11.6744 67.5377 10.8719 67.5377 10.002C67.5377 8.63003 67.7749 7.37012 68.2493 6.2223C68.733 5.07449 69.4586 4.03876 70.426 3.11513C70.8912 2.67573 71.4074 2.29462 71.9749 1.9718C72.5423 1.64898 73.147 1.38444 73.7888 1.17819C74.4307 0.971944 75.1005 0.8195 75.7981 0.72086C76.5051 0.613252 77.226 0.559448 77.9609 0.559448C79.1423 0.559448 80.2819 0.680507 81.3795 0.922624C82.4772 1.15577 83.5702 1.52792 84.6586 2.03905L83.5005 5.32109C82.6167 4.86376 81.7284 4.51852 80.8354 4.28537C79.9516 4.05222 79.0446 3.93564 78.1144 3.93564C77.2679 3.93564 76.4493 4.03876 75.6586 4.24501C74.8679 4.45126 74.1702 4.83685 73.5656 5.40179C73.026 5.91293 72.5935 6.56306 72.2679 7.35218C71.9423 8.14131 71.7795 9.02459 71.7795 10.002C71.7795 11.0243 71.947 11.9524 72.2819 12.7864C72.626 13.6203 73.1051 14.2839 73.7191 14.7771C74.0726 15.0641 74.426 15.2972 74.7795 15.4766C75.1423 15.6469 75.5191 15.7815 75.9098 15.8801C76.3005 15.9698 76.7144 16.0325 77.1516 16.0684C77.5981 16.1043 78.0772 16.1222 78.5888 16.1222C79.0353 16.1222 79.4865 16.0863 79.9423 16.0146C80.3981 15.9339 80.8493 15.8263 81.2958 15.6918C81.7516 15.5573 82.1888 15.4003 82.6074 15.221C83.0353 15.0327 83.4353 14.8309 83.8074 14.6157L84.9377 17.7632Z"/>
<path d="M89.534 10.0558C89.534 8.54932 89.7619 7.20871 90.2177 6.03399C90.6735 4.85031 91.3154 3.85493 92.1433 3.04788C92.9805 2.24082 93.9805 1.62656 95.1433 1.20509C96.306 0.774664 97.5991 0.559448 99.0223 0.559448C100.529 0.559448 101.869 0.788115 103.041 1.24545C104.222 1.70278 105.222 2.34843 106.041 3.18239C106.86 4.01635 107.483 5.0162 107.911 6.18195C108.339 7.33873 108.553 8.62106 108.553 10.0289C108.553 11.4458 108.339 12.7371 107.911 13.9028C107.483 15.0686 106.86 16.0684 106.041 16.9024C105.222 17.7363 104.222 18.382 103.041 18.8393C101.869 19.2966 100.529 19.5253 99.0223 19.5253C97.5991 19.5253 96.306 19.3146 95.1433 18.8931C93.9805 18.4627 92.9805 17.8439 92.1433 17.0369C91.3154 16.2298 90.6735 15.2389 90.2177 14.0642C89.7619 12.8895 89.534 11.5534 89.534 10.0558ZM93.7619 10.0289C93.7619 11.0781 93.8875 11.9883 94.1386 12.7595C94.3898 13.5307 94.7433 14.1673 95.1991 14.6695C95.6642 15.1717 96.2177 15.5438 96.8595 15.7859C97.5107 16.0281 98.2316 16.1491 99.0223 16.1491C99.9247 16.1491 100.706 15.9922 101.367 15.6783C102.036 15.3645 102.585 14.934 103.013 14.387C103.45 13.84 103.771 13.1944 103.976 12.4501C104.19 11.6968 104.297 10.8898 104.297 10.0289C104.297 9.16806 104.19 8.36549 103.976 7.6212C103.771 6.87692 103.45 6.23575 103.013 5.69772C102.585 5.15071 102.036 4.72028 101.367 4.40642C100.706 4.09257 99.9247 3.93564 99.0223 3.93564C98.2316 3.93564 97.5107 4.0567 96.8595 4.29882C96.2177 4.54093 95.6642 4.91308 95.1991 5.41525C94.7433 5.91742 94.3898 6.55409 94.1386 7.32528C93.8875 8.0875 93.7619 8.98872 93.7619 10.0289Z"/>
<path d="M124.688 4.29882H119.721C119.628 5.95777 119.521 7.45082 119.4 8.77799C119.288 10.1051 119.135 11.2978 118.94 12.3559C118.753 13.4051 118.512 14.3422 118.214 15.1672C117.926 15.9832 117.563 16.7141 117.126 17.3597C116.828 17.7543 116.498 18.0816 116.135 18.3416C115.781 18.6017 115.419 18.8079 115.047 18.9604C114.684 19.1038 114.321 19.2025 113.958 19.2563C113.605 19.3191 113.274 19.3504 112.967 19.3504C112.595 19.3504 112.251 19.3146 111.935 19.2428C111.619 19.1801 111.312 19.0814 111.014 18.9469L111.447 15.7187C111.642 15.7815 111.874 15.8128 112.144 15.8128C112.451 15.8128 112.758 15.7456 113.065 15.6111C113.372 15.4676 113.642 15.2389 113.874 14.9251C114.163 14.5484 114.423 14.0014 114.656 13.2841C114.898 12.5667 115.107 11.643 115.284 10.5132C115.46 9.38328 115.605 8.02922 115.716 6.45097C115.828 4.86376 115.902 3.01649 115.94 0.909173H128.679V19.1487H124.688V4.29882Z"/>
<path d="M139.973 8.23995H143.531C143.717 7.02039 144.085 5.93535 144.633 4.98482C145.182 4.02531 145.88 3.21826 146.727 2.56364C147.573 1.90903 148.55 1.41134 149.657 1.07058C150.773 0.729827 151.992 0.559448 153.313 0.559448C154.866 0.559448 156.257 0.788115 157.485 1.24545C158.722 1.70278 159.768 2.34843 160.624 3.18239C161.48 4.01635 162.131 5.0162 162.578 6.18195C163.033 7.33873 163.261 8.62106 163.261 10.0289C163.261 11.4458 163.033 12.7371 162.578 13.9028C162.131 15.0686 161.48 16.0684 160.624 16.9024C159.768 17.7363 158.727 18.382 157.499 18.8393C156.271 19.2966 154.875 19.5253 153.313 19.5253C151.973 19.5253 150.736 19.3504 149.601 19.0007C148.475 18.651 147.485 18.1399 146.629 17.4673C145.782 16.7948 145.089 15.9698 144.55 14.9923C144.01 14.0059 143.661 12.8805 143.503 11.6161H139.973V19.1487H135.968V0.909173H139.973V8.23995ZM147.633 10.0289C147.633 11.0781 147.768 11.9883 148.038 12.7595C148.317 13.5307 148.703 14.1673 149.196 14.6695C149.699 15.1717 150.299 15.5438 150.996 15.7859C151.694 16.0281 152.466 16.1491 153.313 16.1491C154.271 16.1491 155.103 15.9922 155.81 15.6783C156.527 15.3645 157.122 14.934 157.596 14.387C158.071 13.84 158.424 13.1944 158.657 12.4501C158.889 11.6968 159.006 10.8898 159.006 10.0289C159.006 9.16806 158.889 8.36549 158.657 7.6212C158.424 6.87692 158.071 6.23575 157.596 5.69772C157.122 5.15071 156.527 4.72028 155.81 4.40642C155.103 4.09257 154.271 3.93564 153.313 3.93564C152.475 3.93564 151.708 4.0567 151.01 4.29882C150.313 4.54093 149.713 4.91308 149.21 5.41525C148.708 5.91742 148.317 6.55409 148.038 7.32528C147.768 8.0875 147.633 8.98872 147.633 10.0289Z"/>
<path d="M0.0465116 25.4617H171.102V29.479H0.0465116V25.4617Z"/>
<path d="M184.605 25.4617H188.772V29.479H184.605V25.4617Z"/>
<path d="M176.27 4.22708H180.437V29.479H176.27V4.22708Z"/>
<path d="M188.772 0.783631V4.22708L167.935 4.22708V0.78363L188.772 0.783631Z"/>
</svg>
