<svg width="24" height="25" viewBox="0 0 24 25" xmlns="http://www.w3.org/2000/svg">
<path d="M4.86349 16.91C7.23964 19.7397 10.1 21.9676 13.3647 23.5441C14.6077 24.1309 16.27 24.8271 18.122 24.9465C18.2368 24.9514 18.3467 24.9564 18.4615 24.9564C19.7045 24.9564 20.7028 24.5287 21.5165 23.6485C21.5215 23.6435 21.5315 23.6336 21.5365 23.6236C21.826 23.2755 22.1555 22.9622 22.4999 22.629C22.7345 22.4052 22.9742 22.1715 23.2038 21.9328C24.2671 20.8288 24.2671 19.4264 23.1938 18.3572L20.1937 15.3684C19.6845 14.8412 19.0755 14.5627 18.4365 14.5627C17.7975 14.5627 17.1835 14.8412 16.6594 15.3634L14.8723 17.1437C14.7075 17.0493 14.5378 16.9647 14.3781 16.8851C14.1784 16.7857 13.9937 16.6912 13.829 16.5868C12.2016 15.5573 10.724 14.2146 9.31129 12.489C8.59744 11.5888 8.11822 10.8329 7.78376 10.0621C8.253 9.63939 8.69229 9.19679 9.1166 8.76413C9.26636 8.60996 9.42111 8.4558 9.57586 8.30163C10.115 7.76454 10.4045 7.14291 10.4045 6.51133C10.4045 5.87975 10.12 5.25812 9.57586 4.72103L8.08827 3.23906C7.91355 3.065 7.74882 2.89592 7.57909 2.72186C7.24963 2.38369 6.90518 2.03558 6.56573 1.72227C6.05157 1.21999 5.44755 0.956421 4.80858 0.956421C4.17461 0.956421 3.56559 1.21999 3.03146 1.72725L1.16448 3.58717C0.485583 4.26351 0.101206 5.08406 0.021335 6.03392C-0.0735114 7.22248 0.146133 8.48564 0.715211 10.0124C1.5888 12.3746 2.90666 14.5677 4.86349 16.91ZM1.23936 6.13835C1.29927 5.47693 1.55385 4.92492 2.03308 4.44751L3.89007 2.59753C4.1796 2.31904 4.49908 2.17482 4.80858 2.17482C5.11309 2.17482 5.42259 2.31904 5.70713 2.60748C6.04158 2.91581 6.35607 3.23906 6.69552 3.5822C6.86525 3.75626 7.03997 3.93031 7.21468 4.10934L8.70227 5.59131C9.01177 5.89964 9.17151 6.21295 9.17151 6.52128C9.17151 6.82961 9.01177 7.14291 8.70227 7.45124C8.54752 7.60541 8.39278 7.76454 8.23803 7.91871C7.77378 8.38618 7.33948 8.82878 6.86026 9.25149C6.85027 9.26144 6.84528 9.26641 6.8353 9.27635C6.42097 9.68912 6.48586 10.082 6.5857 10.3804C6.59069 10.3953 6.59569 10.4052 6.60068 10.4202C6.98506 11.3402 7.51919 12.2154 8.35284 13.2598C9.85041 15.0998 11.4279 16.5271 13.165 17.6261C13.3797 17.7654 13.6093 17.8748 13.824 17.9842C14.0237 18.0836 14.2084 18.1781 14.3731 18.2826C14.3931 18.2925 14.408 18.3025 14.428 18.3124C14.5927 18.397 14.7525 18.4367 14.9122 18.4367C15.3116 18.4367 15.5711 18.1831 15.656 18.0986L17.523 16.2386C17.8125 15.9502 18.127 15.796 18.4365 15.796C18.8159 15.796 19.1254 16.0298 19.3201 16.2386L22.3302 19.2324C22.9292 19.8292 22.9242 20.4757 22.3152 21.1073C22.1056 21.3311 21.8859 21.5449 21.6513 21.7687C21.3019 22.1069 20.9375 22.455 20.608 22.8478C20.0339 23.4645 19.35 23.7529 18.4665 23.7529C18.3816 23.7529 18.2917 23.748 18.2069 23.743C16.5695 23.6386 15.047 23.002 13.9038 22.4599C10.7989 20.9631 8.07329 18.8396 5.81196 16.1442C3.94997 13.9112 2.697 11.8325 1.86834 9.60458C1.35418 8.23698 1.15949 7.13794 1.23936 6.13835Z"/>
</svg>
