<svg width="32" height="32" viewBox="0 0 32 32" xmlns="http://www.w3.org/2000/svg">
<path d="M31.9914 5.96505C31.9935 5.95227 31.9973 5.93948 31.9983 5.92669C32.0021 5.88727 31.9978 5.84731 31.993 5.80735C31.9919 5.79723 31.9935 5.78764 31.9919 5.77751C31.9824 5.72477 31.9648 5.67309 31.9387 5.62354C31.9344 5.61501 31.9285 5.60702 31.9237 5.5985C31.9227 5.59743 31.9227 5.59583 31.9222 5.59424C31.9216 5.59317 31.92 5.59264 31.9195 5.59104C31.9158 5.58518 31.9126 5.57879 31.9088 5.57346C31.8758 5.52497 31.8358 5.48502 31.7911 5.45092C31.781 5.44346 31.7692 5.4392 31.7586 5.43227C31.7192 5.40616 31.6776 5.38485 31.6329 5.37047C31.6131 5.36407 31.5934 5.36088 31.5732 5.35715C31.5343 5.34916 31.4954 5.34543 31.4549 5.34649C31.4336 5.34702 31.4133 5.34809 31.392 5.35129C31.3782 5.35342 31.3649 5.35129 31.351 5.35448L0.425099 11.7457C0.20506 11.7916 0.0367007 11.97 0.00526653 12.1928C-0.0261677 12.4155 0.085184 12.6339 0.283912 12.7389L9.14516 17.413L10.6993 26.0371C10.6982 26.0435 10.6998 26.0504 10.6993 26.0568C10.694 26.0994 10.6934 26.141 10.6987 26.1831C10.7014 26.2044 10.7041 26.2247 10.7094 26.2454C10.7217 26.296 10.7414 26.3435 10.768 26.3882C10.7733 26.3967 10.7733 26.4069 10.7792 26.4154C10.7808 26.4181 10.7835 26.4202 10.7856 26.4223C10.7925 26.4324 10.8021 26.4404 10.8101 26.4506C10.8351 26.4815 10.8612 26.5097 10.8911 26.5337C10.8959 26.5374 10.8991 26.5433 10.9044 26.547C10.9124 26.5528 10.9215 26.5544 10.9294 26.5598C10.9619 26.5811 10.9955 26.5987 11.0312 26.6125C11.0456 26.6178 11.0589 26.6242 11.0738 26.6285C11.1218 26.6424 11.1713 26.6519 11.2214 26.6519C11.2219 26.6519 11.2225 26.6519 11.223 26.6519C11.2251 26.6519 11.2273 26.6509 11.2294 26.6509C11.2385 26.6514 11.2475 26.6519 11.2566 26.6519C11.4042 26.6519 11.5374 26.5859 11.6359 26.4841L17.5386 22.549L23.7189 26.5662C23.8063 26.6226 23.9075 26.6519 24.0093 26.6519C24.0652 26.6519 24.1222 26.6429 24.1771 26.6248C24.3305 26.5736 24.4531 26.4553 24.509 26.303L31.9658 6.06308C31.9728 6.04497 31.9786 6.02632 31.9834 6.00714C31.9856 5.99915 31.9861 5.99116 31.9877 5.9837C31.9893 5.97784 31.9904 5.97145 31.9914 5.96505ZM25.8207 9.36581L13.0377 18.7646C13.0169 18.7801 13.0004 18.7993 12.9823 18.8174C12.9753 18.8238 12.9684 18.8291 12.9625 18.836C12.9514 18.8483 12.9412 18.8605 12.9311 18.8738C12.9215 18.8866 12.9141 18.9 12.9055 18.9133C12.8858 18.9452 12.8693 18.9783 12.8565 19.0134C12.8539 19.0204 12.8496 19.0257 12.8475 19.0326C12.8469 19.0347 12.8448 19.0358 12.8443 19.0379L11.3791 23.7994L10.2182 17.3575L25.8207 9.36581ZM12.2049 24.8245L13.6573 20.0273L15.9184 21.4973L16.5652 21.9176L14.368 23.3823L12.2049 24.8245ZM27.7281 7.19152L9.62786 16.4625L2.09431 12.489L27.7281 7.19152ZM23.7402 25.3093L15.5327 19.9751L14.2897 19.1669L30.3552 7.35402L23.7402 25.3093Z"/>
</svg>
